<svg viewBox="0 0 21.543 21.4395" xmlns="http://www.w3.org/2000/svg" xmlns:xlink="http://www.w3.org/1999/xlink" width="21.542969" height="21.439453" fill="none" customFrame="#000000">
	<path id="Форма 10" d="M16.7797 2.61961L14.6254 1.48861C12.734 0.496563 11.7883 0 10.7714 0C9.75461 0 8.80887 0.495486 6.91741 1.48861L6.57165 1.67065L16.183 7.163L20.5088 4.99794C19.813 4.20947 18.6906 3.62028 16.7797 2.61746M21.2714 6.42408L16.965 8.57837L16.965 11.8486C16.965 12.3871 16.6957 12.6564 16.1571 12.6564C15.6186 12.6564 15.3493 12.3871 15.3493 11.8486L15.3493 9.38622L11.5793 11.2712L11.5793 21.4395C12.3527 21.2466 13.2327 20.7856 14.6254 20.0543L16.7797 18.9233C19.0967 17.7072 20.2557 17.0996 20.8998 16.0063C21.5429 14.9141 21.5429 13.5537 21.5429 10.8361L21.5429 10.71C21.5429 8.671 21.5429 7.39674 21.2714 6.42516M9.96357 21.4395L9.96357 11.2712L0.27144 6.42408C0 7.39566 0 8.671 0 10.7079L0 10.8339C0 13.5537 0 14.9141 0.643054 16.0063C1.28719 17.0996 2.44619 17.7082 4.76313 18.9243L6.91741 20.0543C8.31016 20.7856 9.19018 21.2466 9.96357 21.4395ZM1.03406 4.99902L10.7714 9.86771L14.4456 8.03118L4.87407 2.56145L4.76313 2.61961C2.85335 3.62135 1.72989 4.21055 1.03406 5.0001" fill="rgb(255,255,255)" fill-rule="nonzero" />
</svg>
