<svg viewBox="0 0 26.3301 26.2036" xmlns="http://www.w3.org/2000/svg" xmlns:xlink="http://www.w3.org/1999/xlink" width="26.330078" height="26.203613" fill="none" customFrame="#000000">
	<path id="Форма 140" d="M20.5086 3.20175L17.8755 1.81941C15.5638 0.60691 14.4079 0 13.1651 0C11.9223 0 10.7664 0.605594 8.45461 1.81941L8.03202 2.0419L19.7792 8.75478L25.0663 6.1086C24.2159 5.14491 22.844 4.42478 20.5086 3.19911M25.9984 7.85165L20.735 10.4847L20.735 14.4816C20.735 15.1398 20.4059 15.469 19.7476 15.469C19.0894 15.469 18.7602 15.1398 18.7602 14.4816L18.7602 11.4721L14.1525 13.7759L14.1525 26.2038C15.0977 25.9681 16.1733 25.4047 17.8755 24.5108L20.5086 23.1284C23.3404 21.6421 24.7569 20.8996 25.5442 19.5633C26.3302 18.2284 26.3302 16.5656 26.3302 13.2441L26.3302 13.09C26.3302 10.5979 26.3302 9.04046 25.9984 7.85297M12.1777 26.2038L12.1777 13.7759L0.33176 7.85166C0 9.03915 0 10.5979 0 13.0874L0 13.2414C0 16.5656 0 18.2284 0.785955 19.5633C1.57323 20.8996 2.98979 21.6434 5.8216 23.1297L8.45461 24.5108C10.1569 25.4047 11.2324 25.9681 12.1777 26.2038ZM1.26385 6.10991L13.1651 12.0605L17.6557 9.81588L5.9572 3.13066L5.8216 3.20175C3.48743 4.4261 2.11431 5.14623 1.26385 6.11123" opacity="0.5" fill="rgb(255,255,255)" fill-rule="nonzero" />
</svg>
