<svg viewBox="0 0 24 24" xmlns="http://www.w3.org/2000/svg" xmlns:xlink="http://www.w3.org/1999/xlink" width="24.000000" height="24.000000" fill="none">
	<rect id="svg 41" width="24.000000" height="24.000000" x="0.000000" y="0.000000" />
	<g id="Group 157">
		<path id="Vector 56" d="M1.49512 0.276855L1.80428 0.379522C3.34428 0.892856 4.11428 1.14952 4.55412 1.76086C4.99395 2.37219 4.99512 3.18419 4.99512 4.80702L4.99512 7.86019C4.99512 11.1595 4.99512 12.8104 6.02062 13.8347C7.04495 14.8602 8.69578 14.8602 11.9951 14.8602L21.3285 14.8602" fill-rule="nonzero" stroke="rgb(255,255,255)" stroke-linecap="round" stroke-width="1.750000" />
		<path id="Vector 57" d="M8.94041 18.1111C9.23939 18.3283 9.46193 18.6346 9.57613 18.9861C9.69033 19.3376 9.69033 19.7162 9.57613 20.0676C9.46193 20.4191 9.23939 20.7254 8.94041 20.9426C8.64142 21.1599 8.28135 21.2769 7.91178 21.2769C7.54222 21.2769 7.18214 21.1599 6.88316 20.9426C6.58418 20.7254 6.36164 20.4191 6.24744 20.0676C6.13323 19.7162 6.13323 19.3376 6.24744 18.9861C6.36164 18.6346 6.58418 18.3283 6.88316 18.1111C7.18214 17.8939 7.54222 17.7769 7.91178 17.7769C8.28135 17.7769 8.64142 17.8939 8.94041 18.1111ZM19.4404 18.1111C19.7394 18.3283 19.9619 18.6346 20.0761 18.9861C20.1903 19.3376 20.1903 19.7162 20.0761 20.0676C19.9619 20.4191 19.7394 20.7254 19.4404 20.9426C19.1414 21.1599 18.7813 21.2769 18.4118 21.2769C18.0422 21.2769 17.6821 21.1599 17.3832 20.9426C17.0842 20.7254 16.8616 20.4191 16.7474 20.0676C16.6332 19.7162 16.6332 19.3376 16.7474 18.9861C16.8616 18.6346 17.0842 18.3283 17.3832 18.1111C17.6821 17.8939 18.0422 17.7769 18.4118 17.7769C18.7813 17.7769 19.1414 17.8939 19.4404 18.1111ZM4.99512 3.77686L18.3535 3.77686C20.7509 3.77686 21.9503 3.77686 22.4694 4.56319C22.9874 5.35069 22.5161 6.45202 21.5711 8.65585L21.0706 9.82252C20.6296 10.8515 20.4091 11.3649 19.9716 11.6542C19.533 11.9435 18.9729 11.9435 17.8541 11.9435L4.99512 11.9435" fill-rule="nonzero" stroke="rgb(255,255,255)" stroke-width="1.750000" />
	</g>
</svg>
