<svg viewBox="0 0 26.6885 29.426" xmlns="http://www.w3.org/2000/svg" xmlns:xlink="http://www.w3.org/1999/xlink" width="26.688477" height="29.425999" fill="none" customFrame="#000000">
	<g id="Group 52">
		<path id="Vector 13" d="M6.33586 6.33548C7.53753 5.13243 9.47417 5.13243 13.3447 5.13243L17.4507 5.13243C21.3212 5.13243 23.2579 5.13243 24.4595 6.33548C25.6626 7.53716 25.6626 9.4738 25.6626 13.3443L25.6626 20.1876C25.6626 24.0581 25.6626 25.9948 24.4595 27.1965C23.2579 28.3995 21.3212 28.3995 17.4507 28.3995L13.3447 28.3995C9.47417 28.3995 7.53753 28.3995 6.33586 27.1965C5.13281 25.9948 5.13281 24.0581 5.13281 20.1876L5.13281 13.3443C5.13281 9.4738 5.13281 7.53716 6.33586 6.33548Z" fill-rule="nonzero" stroke="rgb(255,255,255)" stroke-width="2.052977" />
		<path id="Vector 14" d="M5.13232 24.2935C3.99849 24.2935 3.03071 23.8927 2.22897 23.0909C1.42724 22.2892 1.02637 21.3214 1.02637 20.1876L1.02637 11.9757C1.02637 6.8145 1.02637 4.23323 2.63043 2.63054C4.23448 1.02785 6.81439 1.02648 11.9756 1.02648L17.4502 1.02648C18.584 1.02648 19.5518 1.42735 20.3535 2.22908C21.1553 3.03082 21.5561 3.9986 21.5561 5.13243" opacity="0.5" fill-rule="nonzero" stroke="rgb(255,255,255)" stroke-width="2.052977" />
	</g>
</svg>
