<svg viewBox="0 0 24 24.8999" xmlns="http://www.w3.org/2000/svg" xmlns:xlink="http://www.w3.org/1999/xlink" width="24.000000" height="24.899902" fill="none" customFrame="#000000">
	<g id="Group 159">
		<path id="" d="M-17.3936 7L-17.3936 -6.09131L-15.4161 -6.09131L-15.4161 5.30371L-9.48784 5.30371L-9.48784 7L-17.3936 7ZM-3.25519 7.19775C-4.17511 7.19775 -4.97785 6.98682 -5.66339 6.56494C-6.34894 6.14307 -6.88214 5.55273 -7.263 4.79395C-7.64093 4.03516 -7.8299 3.14893 -7.8299 2.13525C-7.8299 1.11572 -7.64093 0.225098 -7.263 -0.536621C-6.88214 -1.29834 -6.34894 -1.89014 -5.66339 -2.31201C-4.97785 -2.73389 -4.17511 -2.94482 -3.25519 -2.94482C-2.33234 -2.94482 -1.52814 -2.73389 -0.842594 -2.31201C-0.157047 -1.89014 0.374691 -1.29834 0.752621 -0.536621C1.13348 0.225098 1.32391 1.11572 1.32391 2.13525C1.32391 3.14893 1.13348 4.03516 0.752621 4.79395C0.374691 5.55273 -0.157047 6.14307 -0.842594 6.56494C-1.52814 6.98682 -2.33234 7.19775 -3.25519 7.19775ZM-3.2464 5.59375C-2.64875 5.59375 -2.15509 5.43555 -1.76545 5.11914C-1.37287 4.80273 -1.08136 4.38232 -0.890934 3.85791C-0.700504 3.3335 -0.605289 2.75781 -0.605289 2.13086C-0.605289 1.50391 -0.700504 0.926758 -0.890934 0.399414C-1.08136 -0.12793 -1.37287 -0.55127 -1.76545 -0.870605C-2.15509 -1.18994 -2.64875 -1.34961 -3.2464 -1.34961C-3.84992 -1.34961 -4.34797 -1.18994 -4.74054 -0.870605C-5.13312 -0.55127 -5.42463 -0.12793 -5.61506 0.399414C-5.80548 0.926758 -5.9007 1.50391 -5.9007 2.13086C-5.9007 2.75781 -5.80548 3.3335 -5.61506 3.85791C-5.42463 4.38232 -5.13312 4.80273 -4.74054 5.11914C-4.34797 5.43555 -3.84992 5.59375 -3.2464 5.59375ZM7.58572 7.19775C6.6365 7.19775 5.82058 6.98242 5.13796 6.55176C4.45535 6.11816 3.92947 5.52051 3.56033 4.75879C3.19411 3.99707 3.01101 3.12256 3.01101 2.13525C3.01101 1.13623 3.19851 0.255859 3.57351 -0.505859C3.95144 -1.27051 4.48025 -1.86816 5.15993 -2.29883C5.84255 -2.72949 6.64529 -2.94482 7.56814 -2.94482C8.31228 -2.94482 8.97585 -2.80713 9.55886 -2.53174C10.1448 -2.25928 10.6179 -1.87549 10.9783 -1.38037C11.3386 -0.885254 11.554 -0.308105 11.6243 0.351074L9.76101 0.351074C9.65847 -0.108887 9.4241 -0.504395 9.05788 -0.835449C8.6946 -1.16943 8.20827 -1.33643 7.5989 -1.33643C7.0657 -1.33643 6.59988 -1.1958 6.20144 -0.914551C5.803 -0.63623 5.49245 -0.240723 5.2698 0.271973C5.05007 0.784668 4.94021 1.39111 4.94021 2.09131C4.94021 2.80615 5.04861 3.42432 5.2654 3.9458C5.48513 4.46436 5.79421 4.86572 6.19265 5.1499C6.59109 5.43408 7.05984 5.57617 7.5989 5.57617C7.96511 5.57617 8.2947 5.51025 8.58767 5.37842C8.88357 5.24365 9.13259 5.05176 9.33474 4.80273C9.53982 4.55078 9.68191 4.24609 9.76101 3.88867L11.6243 3.88867C11.551 4.52734 11.3416 5.0957 10.9959 5.59375C10.6531 6.0918 10.1931 6.48438 9.61599 6.77148C9.03884 7.05566 8.36208 7.19775 7.58572 7.19775ZM15.4292 3.66895L15.416 1.33984L15.7543 1.33984L19.6655 -2.81738L21.9506 -2.81738L17.4902 1.91113L17.1914 1.91113L15.4292 3.66895ZM13.6713 7L13.6713 -6.09131L15.583 -6.09131L15.583 7L13.6713 7ZM19.8764 7L16.3564 2.3374L17.6748 0.99707L22.2187 7L19.8764 7ZM27.5149 7.19775C26.5481 7.19775 25.7146 6.98975 25.0144 6.57373C24.3172 6.15771 23.7796 5.57178 23.4016 4.81592C23.0266 4.06006 22.8391 3.17383 22.8391 2.15723C22.8391 1.14941 23.0266 0.263184 23.4016 -0.501465C23.7796 -1.26904 24.3084 -1.86816 24.9881 -2.29883C25.6677 -2.72949 26.4632 -2.94482 27.3743 -2.94482C27.9309 -2.94482 28.4685 -2.854 28.9871 -2.67236C29.5086 -2.49072 29.9744 -2.20361 30.3845 -1.81104C30.7976 -1.41846 31.1243 -0.908691 31.3645 -0.281738C31.6048 0.342285 31.7249 1.09961 31.7249 1.99023L31.7249 2.6626L23.9202 2.6626L23.9202 1.22998L29.8484 1.22998C29.8484 0.731934 29.7459 0.288086 29.5408 -0.101562C29.3386 -0.494141 29.053 -0.803223 28.6839 -1.02881C28.3176 -1.25439 27.887 -1.36719 27.3919 -1.36719C26.8528 -1.36719 26.3841 -1.23535 25.9856 -0.97168C25.5901 -0.710938 25.284 -0.369629 25.0672 0.0522461C24.8504 0.471191 24.742 0.925293 24.742 1.41455L24.742 2.53076C24.742 3.18701 24.8577 3.74512 25.0891 4.20508C25.3235 4.66504 25.6487 5.0166 26.0647 5.25977C26.4837 5.5 26.9715 5.62012 27.5281 5.62012C27.8943 5.62012 28.2254 5.56885 28.5213 5.46631C28.8201 5.36084 29.0779 5.2041 29.2947 4.99609C29.5115 4.78809 29.6785 4.52881 29.7957 4.21826L31.6018 4.54346C31.4583 5.07666 31.2005 5.54248 30.8284 5.94092C30.4563 6.33936 29.989 6.64844 29.4265 6.86816C28.864 7.08789 28.2268 7.19775 27.5149 7.19775ZM37.5293 7.18896C36.7353 7.18896 36.0293 6.98682 35.4111 6.58252C34.7929 6.17529 34.3066 5.59375 33.9521 4.83789C33.5976 4.0791 33.4204 3.1709 33.4204 2.11328C33.4204 1.0498 33.5991 0.141602 33.9565 -0.611328C34.3139 -1.36719 34.8032 -1.94434 35.4243 -2.34277C36.0454 -2.74414 36.7514 -2.94482 37.5424 -2.94482C38.1518 -2.94482 38.6425 -2.84375 39.0146 -2.6416C39.3867 -2.43945 39.6767 -2.20361 39.8847 -1.93408C40.0927 -1.66748 40.2539 -1.43164 40.3681 -1.22656L40.478 -1.22656L40.478 -6.09131L42.3896 -6.09131L42.3896 7L40.5263 7L40.5263 5.4707L40.3681 5.4707C40.2509 5.68164 40.0854 5.92188 39.8715 6.19141C39.6577 6.45801 39.3618 6.69092 38.9838 6.89014C38.6088 7.08936 38.124 7.18896 37.5293 7.18896ZM37.9511 5.56299C38.5019 5.56299 38.9663 5.41797 39.3442 5.12793C39.7251 4.83496 40.0151 4.42773 40.2143 3.90625C40.4135 3.38477 40.5131 2.77979 40.5131 2.09131C40.5131 1.40869 40.415 0.8125 40.2187 0.302734C40.0253 -0.209961 39.7382 -0.608398 39.3574 -0.892578C38.9765 -1.17676 38.5078 -1.31885 37.9511 -1.31885C37.3769 -1.31885 36.8964 -1.16943 36.5097 -0.870605C36.1259 -0.574707 35.8374 -0.168945 35.644 0.34668C35.4506 0.859375 35.354 1.44092 35.354 2.09131C35.354 2.74756 35.4521 3.33789 35.6484 3.8623C35.8447 4.38672 36.1347 4.80127 36.5185 5.10596C36.9052 5.41064 37.3828 5.56299 37.9511 5.56299Z" opacity="0" fill="rgb(255,255,255)" fill-rule="nonzero" />
		<path id="" d="M-16.2258 34L-16.2258 32.5674L-11.7917 27.9751C-11.32 27.48 -10.9304 27.0449 -10.6227 26.6699C-10.3122 26.292 -10.0807 25.9316 -9.9284 25.5889C-9.77605 25.2461 -9.69988 24.8843 -9.69988 24.5034C-9.69988 24.0669 -9.80242 23.6904 -10.0075 23.374C-10.2096 23.0576 -10.488 22.813 -10.8425 22.6401C-11.197 22.4673 -11.5954 22.3809 -12.0378 22.3809C-12.5065 22.3809 -12.9152 22.4775 -13.2638 22.6709C-13.6125 22.8613 -13.882 23.1309 -14.0724 23.4795C-14.2599 23.8252 -14.3537 24.2354 -14.3537 24.71L-16.2346 24.71C-16.2346 23.9102 -16.0514 23.2129 -15.6852 22.6182C-15.319 22.0205 -14.8166 21.5562 -14.1779 21.2251C-13.5392 20.894 -12.8127 20.7285 -11.9982 20.7285C-11.175 20.7285 -10.4499 20.8926 -9.82293 21.2207C-9.19305 21.5459 -8.70232 21.9897 -8.35076 22.5522C-7.99627 23.1118 -7.81902 23.7417 -7.81902 24.4419C-7.81902 24.9282 -7.90984 25.4043 -8.09148 25.8701C-8.2702 26.3359 -8.58367 26.853 -9.03191 27.4214C-9.48016 27.9897 -10.1027 28.6797 -10.8996 29.4912L-13.5012 32.2114L-13.5012 32.3081L-7.60809 32.3081L-7.60809 34L-16.2258 34ZM-0.220879 20.9087L-0.220879 34L-2.19842 34L-2.19842 22.895L-2.27752 22.895L-5.40643 24.9341L-5.40643 23.04L-2.14129 20.9087L-0.220879 20.9087ZM7.0257 34.189C6.23176 34.189 5.5257 33.9868 4.90754 33.5825C4.28938 33.1753 3.80305 32.5938 3.44855 31.8379C3.09406 31.0791 2.91682 30.1709 2.91682 29.1133C2.91682 28.0498 3.09553 27.1416 3.45295 26.3887C3.81037 25.6328 4.29963 25.0557 4.92072 24.6572C5.54182 24.2559 6.24787 24.0552 7.03889 24.0552C7.64826 24.0552 8.13898 24.1562 8.51105 24.3584C8.88313 24.5605 9.17316 24.7964 9.38117 25.0659C9.58918 25.3325 9.75031 25.5684 9.86457 25.7734L9.97443 25.7734L9.97443 20.9087L11.8861 20.9087L11.8861 34L10.0228 34L10.0228 32.4707L9.86457 32.4707C9.74738 32.6816 9.58186 32.9219 9.36799 33.1914C9.15412 33.458 8.85822 33.6909 8.48029 33.8901C8.10529 34.0894 7.62043 34.189 7.0257 34.189ZM7.44758 32.563C7.99836 32.563 8.46272 32.418 8.84064 32.1279C9.2215 31.835 9.51154 31.4277 9.71076 30.9062C9.90998 30.3848 10.0096 29.7798 10.0096 29.0913C10.0096 28.4087 9.91145 27.8125 9.71516 27.3027C9.5218 26.79 9.23469 26.3916 8.85383 26.1074C8.47297 25.8232 8.00422 25.6812 7.44758 25.6812C6.87336 25.6812 6.39289 25.8306 6.00617 26.1294C5.62238 26.4253 5.33381 26.8311 5.14045 27.3467C4.94709 27.8594 4.85041 28.4409 4.85041 29.0913C4.85041 29.7476 4.94855 30.3379 5.14484 30.8623C5.34113 31.3867 5.63117 31.8013 6.01496 32.106C6.40168 32.4106 6.87922 32.563 7.44758 32.563ZM21.2904 20.9087L21.2904 34L19.3787 34L19.3787 20.9087L21.2904 20.9087ZM28.0959 34.1978C27.1291 34.1978 26.2956 33.9897 25.5954 33.5737C24.8981 33.1577 24.3605 32.5718 23.9826 31.8159C23.6076 31.0601 23.4201 30.1738 23.4201 29.1572C23.4201 28.1494 23.6076 27.2632 23.9826 26.4985C24.3605 25.731 24.8893 25.1318 25.569 24.7012C26.2487 24.2705 27.0441 24.0552 27.9553 24.0552C28.5119 24.0552 29.0495 24.146 29.568 24.3276C30.0895 24.5093 30.5554 24.7964 30.9655 25.189C31.3786 25.5815 31.7053 26.0913 31.9455 26.7183C32.1857 27.3423 32.3058 28.0996 32.3058 28.9902L32.3058 29.6626L24.5012 29.6626L24.5012 28.23L30.4294 28.23C30.4294 27.7319 30.3268 27.2881 30.1218 26.8984C29.9196 26.5059 29.634 26.1968 29.2648 25.9712C28.8986 25.7456 28.4679 25.6328 27.9728 25.6328C27.4338 25.6328 26.965 25.7646 26.5666 26.0283C26.1711 26.2891 25.8649 26.6304 25.6481 27.0522C25.4313 27.4712 25.3229 27.9253 25.3229 28.4146L25.3229 29.5308C25.3229 30.187 25.4387 30.7451 25.6701 31.2051C25.9045 31.665 26.2297 32.0166 26.6457 32.2598C27.0646 32.5 27.5524 32.6201 28.1091 32.6201C28.4753 32.6201 28.8063 32.5688 29.1022 32.4663C29.4011 32.3608 29.6589 32.2041 29.8757 31.9961C30.0925 31.7881 30.2595 31.5288 30.3766 31.2183L32.1828 31.5435C32.0392 32.0767 31.7814 32.5425 31.4094 32.9409C31.0373 33.3394 30.57 33.6484 30.0075 33.8682C29.445 34.0879 28.8078 34.1978 28.0959 34.1978ZM39.1078 24.1826L39.1078 25.7163L33.5575 25.7163L33.5575 24.1826L39.1078 24.1826ZM35.078 34L35.078 23.04C35.078 22.4277 35.2128 21.9194 35.4823 21.5151C35.7518 21.1079 36.1078 20.8032 36.5502 20.6011C36.9925 20.396 37.473 20.2935 37.9916 20.2935C38.3783 20.2935 38.7079 20.3242 38.9803 20.3857C39.2528 20.4473 39.4549 20.5044 39.5868 20.5571L39.1385 22.104C39.0507 22.0776 38.9349 22.0469 38.7914 22.0117C38.6507 21.9766 38.4808 21.959 38.2816 21.959C37.8158 21.959 37.4833 22.0732 37.284 22.3018C37.0878 22.5303 36.9896 22.8613 36.9896 23.2949L36.9896 34L35.078 34ZM45.6612 24.1826L45.6612 25.7163L40.2955 25.7163L40.2955 24.1826L45.6612 24.1826ZM41.7325 21.8315L43.6441 21.8315L43.6441 31.1172C43.6441 31.4863 43.6983 31.7646 43.8067 31.9521C43.9181 32.1396 44.0631 32.2656 44.2418 32.3301C44.4205 32.3945 44.6139 32.4268 44.8219 32.4268C44.9771 32.4268 45.1104 32.4165 45.2218 32.396C45.336 32.3755 45.4254 32.3594 45.4898 32.3477L45.8414 33.9253C45.7271 33.9663 45.5675 34.0088 45.3624 34.0527C45.1573 34.0996 44.9024 34.126 44.5977 34.1318C44.0938 34.1406 43.6236 34.0513 43.1871 33.8638C42.7535 33.6733 42.4019 33.3833 42.1324 32.9937C41.8658 32.6011 41.7325 32.1074 41.7325 31.5127L41.7325 21.8315Z" opacity="0" fill="rgb(255,255,255)" fill-rule="nonzero" />
		<path id="Форма 205" d="M3.9 10.566L3.9 8.1C3.9 6.38945 4.44153 4.7228 5.44696 3.33894C6.4524 1.95507 7.87013 0.925032 9.49696 0.396443C11.1238 -0.132147 12.8762 -0.132147 14.503 0.396443C16.1299 0.925033 17.5476 1.95508 18.553 3.33894C19.5585 4.72281 20.1 6.38945 20.1 8.1L20.1 10.566C21.438 10.6656 22.308 10.9176 22.9452 11.5548C24 12.6084 24 14.3064 24 17.7C24 21.0936 24 22.7916 22.9452 23.8452C21.8916 24.9 20.1936 24.9 16.8 24.9L7.2 24.9C3.8064 24.9 2.1084 24.9 1.0548 23.8452C0 22.7916 0 21.0936 0 17.7C0 14.3064 0 12.6084 1.0548 11.5548C1.6908 10.9176 2.562 10.6656 3.9 10.566M5.7 8.1C5.7 6.76957 6.12119 5.47329 6.90319 4.39695C7.6852 3.32061 8.78788 2.51947 10.0532 2.10834C11.3185 1.69722 12.6815 1.69722 13.9468 2.10834C15.2121 2.51947 16.3148 3.32061 17.0968 4.39696C17.8788 5.4733 18.3 6.76957 18.3 8.1L18.3 10.5048C17.8408 10.5008 17.3408 10.4992 16.8 10.5L7.2 10.5C6.6584 10.4992 6.1584 10.5008 5.7 10.5048L5.7 8.1ZM12 14.4C12.158 14.4 12.3132 14.4416 12.45 14.5206C12.5868 14.5996 12.7004 14.7132 12.7794 14.85C12.8584 14.9868 12.9 15.142 12.9 15.3L12.9 20.1C12.9 20.2901 12.8398 20.4752 12.7281 20.629C12.6164 20.7828 12.4589 20.8972 12.2781 20.956C12.0974 21.0147 11.9026 21.0147 11.7219 20.956C11.5411 20.8972 11.3836 20.7828 11.2719 20.629C11.1602 20.4752 11.1 20.2901 11.1 20.1L11.1 15.3C11.1 15.142 11.1416 14.9868 11.2206 14.85C11.2996 14.7132 11.4132 14.5996 11.55 14.5206C11.6868 14.4416 11.842 14.4 12 14.4Z" opacity="0.899999976" fill="rgb(255,255,255)" fill-rule="evenodd" />
	</g>
</svg>
