<svg viewBox="0 0 23.7603 5.28027" xmlns="http://www.w3.org/2000/svg" xmlns:xlink="http://www.w3.org/1999/xlink" width="23.760254" height="5.280273" fill="none" customFrame="#000000">
	<path id="Форма 191" d="M5.27951 2.64C5.27951 3.19751 5.10302 3.74072 4.77532 4.19175C4.44762 4.64279 3.98554 4.97851 3.45532 5.15079C2.92509 5.32307 2.35393 5.32307 1.82371 5.15079C1.29348 4.97851 0.831405 4.64279 0.503707 4.19175C0.176009 3.74071 -0.000488281 3.19751 -0.000488281 2.64C-0.000488281 2.08249 0.176009 1.53928 0.503707 1.08825C0.831405 0.63721 1.29348 0.301492 1.82371 0.129211C2.35393 -0.0430703 2.92509 -0.0430703 3.45532 0.129211C3.98554 0.301492 4.44762 0.63721 4.77532 1.08825C5.10302 1.53929 5.27951 2.08249 5.27951 2.64ZM11.8795 0C12.437 0 12.9802 0.176497 13.4313 0.504195C13.8823 0.831894 14.218 1.29397 14.3903 1.82419C14.5626 2.35442 14.5626 2.92558 14.3903 3.45581C14.218 3.98603 13.8823 4.44811 13.4313 4.77581C12.9802 5.1035 12.437 5.28 11.8795 5.28C11.322 5.28 10.7788 5.1035 10.3278 4.77581C9.87672 4.44811 9.54101 3.98603 9.36872 3.45581C9.19644 2.92558 9.19644 2.35442 9.36872 1.82419C9.54101 1.29397 9.87672 0.831894 10.3278 0.504196C10.7788 0.176497 11.322 0 11.8795 0ZM21.1195 0C21.677 0 22.2202 0.176497 22.6713 0.504195C23.1223 0.831894 23.458 1.29397 23.6303 1.82419C23.8026 2.35442 23.8026 2.92558 23.6303 3.45581C23.458 3.98603 23.1223 4.44811 22.6713 4.77581C22.2202 5.1035 21.677 5.28 21.1195 5.28C20.562 5.28 20.0188 5.1035 19.5678 4.77581C19.1167 4.44811 18.781 3.98603 18.6087 3.45581C18.4364 2.92558 18.4364 2.35442 18.6087 1.82419C18.781 1.29397 19.1167 0.831894 19.5678 0.504196C20.0188 0.176497 20.562 0 21.1195 0Z" fill="rgb(255,255,255)" fill-rule="evenodd" />
</svg>
