<svg viewBox="0 0 16.6108 16.6108" xmlns="http://www.w3.org/2000/svg" xmlns:xlink="http://www.w3.org/1999/xlink" width="16.610840" height="16.610840" fill="none" customFrame="#000000">
	<path id="Форма 187" d="M15.425 9.49201L9.49251 9.49201L9.49251 15.4245C9.49251 15.6751 9.41318 15.9192 9.2659 16.1219C9.11862 16.3246 8.91095 16.4755 8.67265 16.553C8.43435 16.6304 8.17766 16.6304 7.93935 16.553C7.70105 16.4755 7.49338 16.3246 7.3461 16.1219C7.19882 15.9192 7.1195 15.6751 7.1195 15.4245L7.1195 9.49202L1.18699 9.49202C0.936426 9.49202 0.692293 9.41269 0.489582 9.26541C0.286871 9.11814 0.135989 8.91046 0.0585599 8.67216C-0.0188689 8.43386 -0.0188689 8.17717 0.0585599 7.93886C0.135989 7.70056 0.286871 7.49289 0.489582 7.34561C0.692293 7.19834 0.936426 7.11901 1.18699 7.11901L7.1195 7.11901L7.1195 1.1865C7.1195 0.935937 7.19882 0.691804 7.3461 0.489094C7.49338 0.286383 7.70105 0.1355 7.93935 0.0580716C8.17766 -0.0193572 8.43435 -0.0193572 8.67265 0.0580716C8.91095 0.1355 9.11862 0.286383 9.2659 0.489094C9.41318 0.691805 9.49251 0.935938 9.49251 1.1865L9.49251 7.11901L15.425 7.11901C15.6756 7.11901 15.9197 7.19834 16.1224 7.34561C16.3251 7.49289 16.476 7.70056 16.5534 7.93886C16.6309 8.17717 16.6309 8.43386 16.5534 8.67216C16.476 8.91046 16.3251 9.11814 16.1224 9.26541C15.9197 9.41269 15.6756 9.49202 15.425 9.49202L15.425 9.49201Z" fill="rgb(255,255,255)" fill-rule="nonzero" />
</svg>
