<svg viewBox="0 0 18.3223 18.3223" xmlns="http://www.w3.org/2000/svg" xmlns:xlink="http://www.w3.org/1999/xlink" width="18.322266" height="18.322266" fill="none" customFrame="#000000">
	<path id="Vector 19" d="M5.0895 4.0716C5.0895 2.94726 5.48701 1.98757 6.28204 1.19254C7.07707 0.397515 8.03676 0 9.1611 0C10.2854 0 11.2451 0.397515 12.0402 1.19254C12.8352 1.98757 13.2327 2.94726 13.2327 4.0716C13.2327 5.19594 12.8352 6.15563 12.0402 6.95065C11.2451 7.74568 10.2854 8.1432 9.1611 8.1432C8.03676 8.1432 7.07707 7.74568 6.28204 6.95065C5.48701 6.15563 5.0895 5.19594 5.0895 4.0716ZM5.0895 10.179C4.41459 10.179 3.76537 10.3081 3.14183 10.5664C2.5183 10.8247 1.96791 11.1924 1.49068 11.6697C1.01345 12.1469 0.645692 12.6973 0.387415 13.3208C0.129138 13.9444 0 14.5936 0 15.2685C0 16.1118 0.298136 16.8315 0.894408 17.4278C1.49068 18.0241 2.21044 18.3222 3.0537 18.3222L15.2685 18.3222C16.1118 18.3222 16.8315 18.0241 17.4278 17.4278C18.0241 16.8315 18.3222 16.1118 18.3222 15.2685C18.3222 14.5936 18.1931 13.9444 17.9348 13.3208C17.6765 12.6973 17.3088 12.1469 16.8315 11.6697C16.3543 11.1924 15.8039 10.8247 15.1804 10.5664C14.5568 10.3081 13.9076 10.179 13.2327 10.179L5.0895 10.179Z" fill="rgb(255,255,255)" fill-rule="evenodd" />
</svg>
