<svg viewBox="0 0 19.5098 19.5098" xmlns="http://www.w3.org/2000/svg" xmlns:xlink="http://www.w3.org/1999/xlink" width="19.509766" height="19.509766" fill="none" customFrame="#000000">
	<path id="Форма 202" d="M18.7566 18.7566L14.4136 14.4136M16.6583 10.0081C16.9226 8.33939 16.6518 6.62988 15.8848 5.12454C15.1178 3.61921 13.8939 2.39533 12.3886 1.62833C10.8832 0.86132 9.17373 0.59056 7.50505 0.854851C5.83638 1.11914 4.2942 1.90492 3.09956 3.09956C1.90492 4.2942 1.11914 5.83638 0.854851 7.50505C0.59056 9.17373 0.861319 10.8832 1.62833 12.3886C2.39533 13.8939 3.61921 15.1178 5.12454 15.8848C6.62988 16.6518 8.33939 16.9226 10.0081 16.6583C11.6767 16.394 13.2189 15.6082 14.4136 14.4136C15.6082 13.2189 16.394 11.6767 16.6583 10.0081Z" fill-rule="nonzero" stroke="rgb(255,255,255)" stroke-linecap="round" stroke-linejoin="round" stroke-width="1.500000" />
</svg>
