<svg viewBox="0 0 20.9089 20.9067" xmlns="http://www.w3.org/2000/svg" xmlns:xlink="http://www.w3.org/1999/xlink" width="20.908936" height="20.906738" fill="none" customFrame="#000000">
	<path id="Форма 117" d="M6.97088 13.9398L13.9406 6.97009M9.29412 3.48522L9.83195 2.86259C10.3766 2.31798 11.0048 1.89832 11.7164 1.60361C12.4281 1.30889 13.169 1.16157 13.9393 1.16162C14.7095 1.16168 15.4505 1.30911 16.162 1.60392C16.8736 1.89873 17.5018 2.31848 18.0464 2.86317C18.591 3.40786 19.0106 4.03602 19.3053 4.74766C19.6001 5.4593 19.7474 6.20024 19.7473 6.9705C19.7473 7.74075 19.5998 8.48167 19.305 9.19327C19.0102 9.90486 18.5905 10.533 18.0458 11.0776L17.4255 11.6166M11.6174 17.4247L11.1562 18.045C10.605 18.5896 9.97102 19.0091 9.25425 19.3035C8.53747 19.5979 7.79164 19.7451 7.01676 19.7451C6.24188 19.7451 5.49606 19.5979 4.77928 19.3035C4.0625 19.0091 3.42851 18.5896 2.87732 18.045C2.32841 17.5027 1.90523 16.8755 1.60779 16.1635C1.31034 15.4515 1.16162 14.7097 1.16162 13.9381C1.16162 13.1664 1.31034 12.4246 1.60779 11.7126C1.90523 11.0006 2.32841 10.3735 2.87732 9.83116L3.48601 9.29333" opacity="0.5" fill-rule="nonzero" stroke="rgb(255,255,255)" stroke-linecap="round" stroke-linejoin="round" stroke-width="2.323244" />
</svg>
