<svg xmlns="http://www.w3.org/2000/svg" xmlns:xlink="http://www.w3.org/1999/xlink" viewBox="0 0 512 512" width="512" height="512" style="width: 100%; height: 100%; transform: translate3d(0,0,0); content-visibility: visible;" preserveAspectRatio="xMidYMid meet"><defs><clipPath id="__lottie_element_2"><rect width="512" height="512" x="0" y="0"></rect></clipPath><clipPath id="__lottie_element_4"><path d="M0,0 L100,0 L100,100 L0,100z"></path></clipPath></defs><g clip-path="url(#__lottie_element_2)"><g clip-path="url(#__lottie_element_4)" style="display: block;" transform="matrix(5.119999885559082,0,0,5.119999885559082,0,0)" opacity="1"><g style="display: block;" transform="matrix(1,0,0,1,0,0)" opacity="1"><g opacity="1" transform="matrix(1,0,0,1,0,0)"><path fill="rgb(255,255,255)" fill-opacity="1" d=" M68.12999725341797,83.24800109863281 C69.68073272705078,83.058349609375 71.02891540527344,82.08212280273438 71.69300079345703,80.66799926757812 C72.06437683105469,79.92686462402344 72.19982147216797,79.08941650390625 72.08100128173828,78.26899719238281 C72.08100128173828,78.26899719238281 69.73100280761719,62.077999114990234 69.73100280761719,62.077999114990234 C69.54779052734375,60.811161041259766 69.98339080810547,59.530433654785156 70.9010009765625,58.63800048828125 C70.9010009765625,58.63800048828125 83.74099731445312,46.13600158691406 83.74099731445312,46.13600158691406 C84.40798950195312,45.487449645996094 84.83305358886719,44.629554748535156 84.94499969482422,43.70600128173828 C85.21499633789062,41.46500015258789 83.60199737548828,39.43199920654297 81.34400177001953,39.16400146484375 C81.34400177001953,39.16400146484375 64.70600128173828,37.194000244140625 64.70600128173828,37.194000244140625 C63.25614929199219,37.024513244628906 61.985965728759766,36.13353729248047 61.33300018310547,34.827999114990234 C61.33300018310547,34.827999114990234 53.38999938964844,18.874000549316406 53.38999938964844,18.874000549316406 C53.01377868652344,18.12042999267578 52.40256881713867,17.509220123291016 51.64899826049805,17.132999420166016 C49.724998474121094,16.170000076293945 47.37900161743164,16.937000274658203 46.40800094604492,18.844999313354492 C46.40800094604492,18.844999313354492 37.994998931884766,35.38800048828125 37.994998931884766,35.38800048828125 C37.50599670410156,36.34588623046875 36.572120666503906,37.001102447509766 35.505001068115234,37.1349983215332 C35.505001068115234,37.1349983215332 18.80900001525879,39.25699996948242 18.80900001525879,39.25699996948242 C17.707162857055664,39.39606475830078 16.69954490661621,39.952510833740234 15.994999885559082,40.81100082397461 C14.506990432739258,42.62508773803711 14.811911582946777,45.37199020385742 16.625999450683594,46.86000061035156 C16.625999450683594,46.86000061035156 23.138999938964844,52.106998443603516 23.138999938964844,52.106998443603516 C25.487680435180664,53.9961051940918 28.517702102661133,54.82905960083008 31.50200080871582,54.40599822998047 C31.50200080871582,54.40599822998047 51.05500030517578,51.64099884033203 51.05500030517578,51.64099884033203 C51.42036056518555,51.58890914916992 51.780845642089844,51.774993896484375 51.95000076293945,52.10300064086914 C52.16368865966797,52.521766662597656 51.988765716552734,53.045310974121094 51.56999969482422,53.25899887084961 C51.56999969482422,53.25899887084961 35.582000732421875,61.31999969482422 35.582000732421875,61.31999969482422 C32.07179260253906,63.082088470458984 29.63643455505371,66.4538345336914 29.066999435424805,70.33999633789062 C29.066999435424805,70.33999633789062 27.91699981689453,78.2699966430664 27.91699981689453,78.2699966430664 C27.79612922668457,79.10562896728516 27.939149856567383,79.95851135253906 28.326000213623047,80.70899963378906 C29.360000610351562,82.71900177001953 31.840999603271484,83.51599884033203 33.86600112915039,82.48899841308594 C33.86600112915039,82.48899841308594 48.26100158691406,75.1989974975586 48.26100158691406,75.1989974975586 C49.27988052368164,74.68315887451172 50.489524841308594,74.69850158691406 51.494998931884766,75.23999786376953 C51.494998931884766,75.23999786376953 65.38800048828125,82.73500061035156 65.38800048828125,82.73500061035156 C66.2260971069336,83.18643188476562 67.18436431884766,83.36578369140625 68.12899780273438,83.24800109863281 C68.12899780273438,83.24800109863281 68.12999725341797,83.24800109863281 68.12999725341797,83.24800109863281z"></path></g></g></g></g></svg>