<svg viewBox="0 0 21.3274 21.3276" xmlns="http://www.w3.org/2000/svg" xmlns:xlink="http://www.w3.org/1999/xlink" width="21.327393" height="21.327637" fill="none" customFrame="#000000">
	<g id="Сочетание 32">
		<path id="Форма 19" d="M15.5767 11.7677C16.4387 11.4668 17.5101 11.4261 19.7504 11.4201L21.3244 11.4201C21.2892 11.8108 21.1333 12.1451 20.8567 12.4231L12.4079 20.9135C12.136 21.1876 11.807 21.3247 11.4209 21.3246L11.4209 19.7517C11.4258 17.5114 11.4665 16.4399 11.7684 15.5779C12.4265 13.6972 13.6959 12.4278 15.5767 11.7697" fill="rgb(255,255,255)" fill-rule="nonzero" />
		<path id="Форма 20" d="M10.2302 15.5211C9.95615 16.5777 9.93231 17.8686 9.93033 19.8309L9.93033 21.3244C4.38225 20.9421 0 16.3205 0 10.6751C0 4.77947 4.77947 0 10.6751 0C16.3205 0 20.9431 4.38225 21.3244 9.93033L19.8309 9.93033C17.5896 9.93232 16.2232 9.96409 15.0842 10.3623C13.221 11.0142 11.8165 12.2065 10.8707 13.9392L10.8141 13.9462C9.80003 14.1305 8.7921 14.1014 7.79034 13.8588C7.309 13.7384 7.00797 13.9189 6.88724 14.4001C6.76651 14.8814 6.94673 15.1825 7.42789 15.3036C8.30771 15.5241 9.25705 15.6015 10.2302 15.5221M13.5529 9.90451C14.0822 9.76251 14.3394 9.00383 14.1259 8.2094C13.9134 7.41498 13.3116 6.88569 12.7813 7.0277C12.252 7.1697 11.9948 7.92838 12.2074 8.7228C12.4199 9.51723 13.0226 10.0465 13.5529 9.90451M7.79729 11.4467C8.32757 11.3047 8.58377 10.546 8.37127 9.75159C8.15876 8.95716 7.55698 8.42787 7.0267 8.56988C6.49642 8.71188 6.24022 9.47056 6.45273 10.265C6.66523 11.0594 7.26701 11.5887 7.79729 11.4467Z" fill="rgb(255,255,255)" fill-rule="evenodd" />
	</g>
</svg>
