<svg viewBox="0 0 21.4197 21.8567" xmlns="http://www.w3.org/2000/svg" xmlns:xlink="http://www.w3.org/1999/xlink" width="21.419678" height="21.856689" fill="none" customFrame="#000000">
	<path id="Форма 119" d="M19.4524 8.93938C19.1137 5.46418 17.0591 0 10.7098 0C4.36043 0 2.30589 5.46418 1.96712 8.93938C0.77867 9.39043 -0.00524939 10.5315 2.67717e-05 11.8026L2.67717e-05 13.3326C2.67717e-05 15.0225 1.37003 16.3925 3.05994 16.3925C4.7499 16.3925 6.1199 15.0225 6.1199 13.3326L6.1199 11.8026C6.11437 10.5589 5.35929 9.4413 4.20741 8.97217C4.426 6.96132 5.49699 2.18568 10.7098 2.18568C15.9226 2.18568 16.9826 6.96132 17.2012 8.97217C16.0517 9.44232 15.3004 10.5606 15.2997 11.8026L15.2997 13.3326C15.302 13.9083 15.4662 14.4718 15.7734 14.9588C16.0807 15.4457 16.5186 15.8365 17.0373 16.0865C16.5783 16.9498 15.409 18.1192 12.5348 18.4688C11.9603 17.5965 10.8487 17.2525 9.88188 17.648C8.91508 18.0435 8.36322 19.0679 8.56484 20.0928C8.76647 21.1178 9.66519 21.8567 10.7098 21.8567C11.1146 21.8544 11.5107 21.7398 11.8542 21.5256C12.1977 21.3114 12.4749 21.0061 12.655 20.6436C17.3433 20.1081 18.8405 17.693 19.3104 16.2722C20.5817 15.8604 21.4367 14.6688 21.4195 13.3326L21.4195 11.8026C21.4248 10.5315 20.6409 9.39043 19.4524 8.93938M3.93422 13.3326C3.93422 13.8154 3.5428 14.2068 3.05994 14.2068C2.57708 14.2068 2.18571 13.8154 2.18571 13.3326L2.18571 11.8026C2.18453 11.6484 2.22417 11.4966 2.3006 11.3626C2.37703 11.2287 2.48753 11.1173 2.6209 11.0399C2.75426 10.9624 2.90574 10.9216 3.05997 10.9216C3.21419 10.9216 3.36567 10.9624 3.49904 11.0399C3.6324 11.1173 3.74291 11.2287 3.81934 11.3626C3.89577 11.4966 3.9354 11.6484 3.93422 11.8026L3.93422 13.3326ZM17.4853 11.8026C17.4853 11.3197 17.8767 10.9283 18.3596 10.9283C18.8425 10.9283 19.2339 11.3197 19.2339 11.8026L19.2339 13.3326C19.2339 13.8154 18.8425 14.2068 18.3596 14.2068C17.8767 14.2068 17.4853 13.8154 17.4853 13.3326L17.4853 11.8026Z" opacity="0.5" fill="rgb(255,255,255)" fill-rule="evenodd" />
</svg>
