<svg viewBox="0 0 15.0942 13.7646" xmlns="http://www.w3.org/2000/svg" xmlns:xlink="http://www.w3.org/1999/xlink" width="15.094238" height="13.764648" fill="none" customFrame="#000000">
	<path id="Vector 52" d="M14.8106 2.87262L8.2309 13.3503C8.05606 13.6276 7.80473 13.7657 7.47692 13.7645C7.1491 13.7634 6.89873 13.6236 6.7258 13.3451L0.275538 2.86847C0.0915972 2.56885 -0.000248449 2.24324 4.93934e-07 1.89166C0.00851723 1.36156 0.203029 0.911912 0.583537 0.542727C0.964044 0.173542 1.41936 -0.00730323 1.94948 0.00019214L13.1543 0.00019214C14.2244 0.00019214 15.0945 0.844413 15.0945 1.88752C15.0938 2.24294 14.9991 2.5713 14.8106 2.87262ZM1.8604 2.5225L6.65951 9.92264L6.65951 1.77668L2.36175 1.77668C1.86454 1.77668 1.64287 2.10505 1.86039 2.5225M8.43496 9.92264L13.2341 2.5225C13.4558 2.10505 13.2299 1.77668 12.7327 1.77668L8.43496 1.77668L8.43496 9.92264Z" fill="rgb(255,255,255)" fill-rule="nonzero" />
</svg>
