<svg viewBox="0 0 22.8441 18.594" xmlns="http://www.w3.org/2000/svg" xmlns:xlink="http://www.w3.org/1999/xlink" width="22.844055" height="18.593994" fill="none" customFrame="#000000">
	<g id="Сочетание 266" opacity="0.5">
		<path id="Форма 126" d="M5.04694 5.04688L9.29699 5.04688" stroke="rgb(255,255,255)" stroke-linecap="round" stroke-linejoin="round" stroke-width="1.593768" />
		<path id="Форма 127" d="M18.0425 6.10938C16.146 6.10938 14.6096 7.53633 14.6096 9.29691C14.6096 11.0575 16.147 12.4844 18.0415 12.4844L20.8072 12.4844C20.8964 12.4844 20.94 12.4844 20.9772 12.4823C21.551 12.4473 22.0078 12.0233 22.045 11.491C22.0471 11.457 22.0471 11.4156 22.0471 11.3337L22.0471 7.26008C22.0471 7.17826 22.0471 7.13682 22.045 7.10282C22.0068 6.57051 21.5509 6.14656 20.9772 6.1115C20.9411 6.10938 20.8975 6.10938 20.8083 6.10938L20.8072 6.10938L18.0425 6.10938Z" fill-rule="nonzero" stroke="rgb(255,255,255)" stroke-width="1.593768" />
		<path id="Форма 128" d="M20.9474 6.10944C20.8645 4.12041 20.5989 2.90065 19.7393 2.04214C18.4951 0.796875 16.4912 0.796875 12.4845 0.796875L9.29697 0.796875C5.29024 0.796875 3.28634 0.796875 2.04214 2.04214C0.797937 3.2874 0.796875 5.29024 0.796875 9.29697C0.796875 13.3037 0.796875 15.3076 2.04214 16.5518C3.2874 17.796 5.29024 17.7971 9.29697 17.7971L12.4845 17.7971C16.4912 17.7971 18.4951 17.7971 19.7393 16.5518C20.5989 15.6933 20.8656 14.4735 20.9474 12.4845" fill-rule="nonzero" stroke="rgb(255,255,255)" stroke-width="1.593768" />
		<path id="Форма 129" d="M17.7875 9.29688L17.7981 9.29688" stroke="rgb(255,255,255)" stroke-linecap="round" stroke-linejoin="round" stroke-width="2.125025" />
	</g>
</svg>
