<svg viewBox="0 0 21 21.0264" xmlns="http://www.w3.org/2000/svg" xmlns:xlink="http://www.w3.org/1999/xlink" width="21.000000" height="21.026367" fill="none" customFrame="#000000">
	<g id="Сочетание 240" opacity="0.5">
		<path id="Форма 121" d="M2.85484 16.0678C4.02785 17.6823 5.68187 18.884 7.57984 19.5007C9.47781 20.1174 11.5223 20.1174 13.4203 19.5007C15.3182 18.884 16.9722 17.6823 18.1453 16.0678C19.3183 14.4533 19.95 12.5089 19.95 10.5132C19.95 8.51759 19.3183 6.57317 18.1453 4.95866C16.9722 3.34415 15.3182 2.14244 13.4203 1.52575C11.5223 0.90906 9.47781 0.90906 7.57984 1.52575C5.68187 2.14244 4.02785 3.34415 2.85484 4.95866C1.68183 6.57317 1.05005 8.51759 1.05005 10.5132C1.05005 12.5089 1.68183 14.4533 2.85484 16.0678ZM1.68005 7.36323L19.32 7.36323M1.68005 13.6632L19.32 13.6632" fill-rule="nonzero" stroke="rgb(255,255,255)" stroke-linecap="round" stroke-linejoin="round" stroke-width="2.100000" />
		<path id="Форма 122" d="M9.97499 1.06323C8.2061 3.89783 7.26831 7.17199 7.26831 10.5132C7.26831 13.8545 8.2061 17.1286 9.97499 19.9632M11.025 1.06323C12.7939 3.89782 13.7317 7.17199 13.7317 10.5132C13.7317 13.8545 12.7939 17.1286 11.025 19.9632" fill-rule="nonzero" stroke="rgb(255,255,255)" stroke-linecap="round" stroke-linejoin="round" stroke-width="2.100000" />
	</g>
</svg>
